<svg preserveAspectRatio="none" overflow="visible" style="display: block;" width="24" height="24" viewBox="0 0 24 24" fill="none" xmlns="http://www.w3.org/2000/svg">
<g id="arrow_left">
<path id="icon" fill-rule="evenodd" clip-rule="evenodd" d="M6.26151 12.2256C6.25529 12.2142 6.24984 12.2028 6.24509 12.1914C6.19434 12.0688 6.19434 11.9312 6.24509 11.8087C6.28315 11.7168 6.36551 11.6344 6.53025 11.4697L15.3691 2.63085C15.5338 2.46612 15.6162 2.38375 15.7081 2.34569C15.8306 2.29494 15.9682 2.29494 16.0908 2.34569C16.1826 2.38375 16.265 2.46612 16.4297 2.63085C16.5945 2.79559 16.6768 2.87796 16.7149 2.96984C16.7657 3.09236 16.7657 3.23001 16.7149 3.35253C16.6768 3.44441 16.5945 3.52678 16.4297 3.69152L8.12123 12L16.4298 20.3086C16.5945 20.4733 16.6769 20.5557 16.7149 20.6476C16.7657 20.7701 16.7657 20.9077 16.7149 21.0302C16.6769 21.1221 16.5945 21.2045 16.4298 21.3692C16.265 21.534 16.1827 21.6163 16.0908 21.6544C15.9683 21.7051 15.8306 21.7051 15.7081 21.6544C15.6162 21.6163 15.5338 21.534 15.3691 21.3692L6.53027 12.5304C6.4467 12.4468 6.38433 12.3844 6.33818 12.3313C6.30473 12.2927 6.2798 12.259 6.26151 12.2256Z" fill="#00010A" fill-opacity="0.93"/>
</g>
</svg>
