<svg preserveAspectRatio="none" overflow="visible" style="display: block;" width="28" height="28" viewBox="0 0 28 28" fill="none" xmlns="http://www.w3.org/2000/svg">
<g id="export">
<path id="icon" d="M14.5288 1.69544C14.3449 1.51157 14.2591 1.46404 14.1559 1.43277C14.0528 1.4015 13.9472 1.4015 13.8441 1.43277C13.7409 1.46404 13.6551 1.51157 13.4712 1.69544L9.56775 5.59892C9.39742 5.76925 9.34763 5.85732 9.31636 5.96049C9.28509 6.06366 9.28509 6.16917 9.31636 6.27234C9.34763 6.3755 9.39742 6.46358 9.56775 6.63391L9.77019 6.83635C9.94053 7.00669 10.0286 7.05647 10.1318 7.08774C10.2349 7.11901 10.3404 7.11901 10.4436 7.08774C10.5468 7.05647 10.6349 7.00669 10.8052 6.83635L13.1242 4.51616L13.125 15.6015C13.125 15.8424 13.1521 15.9399 13.2029 16.0349C13.2538 16.13 13.3284 16.2046 13.4234 16.2554C13.5185 16.3063 13.616 16.3333 13.8569 16.3333H14.1431C14.384 16.3333 14.4815 16.3063 14.5766 16.2554C14.6716 16.2046 14.7462 16.13 14.7971 16.0349C14.8479 15.9399 14.875 15.8424 14.875 15.6015L14.8742 4.51382L17.1948 6.83635C17.3651 7.00669 17.4532 7.05647 17.5564 7.08774C17.6596 7.11901 17.7651 7.11901 17.8682 7.08774C17.9714 7.05647 18.0595 7.00669 18.2298 6.83635L18.4323 6.63391C18.6026 6.46358 18.6524 6.3755 18.6836 6.27234C18.7149 6.16917 18.7149 6.06366 18.6836 5.96049C18.6524 5.85732 18.6026 5.76925 18.4323 5.59892L14.5288 1.69544ZM20.3421 8.16667H18.6667V8.16668H18.375C18.1032 8.16668 17.9673 8.16668 17.8601 8.21109C17.7172 8.27029 17.6036 8.38385 17.5444 8.52678C17.5 8.63398 17.5 8.76988 17.5 9.04168C17.5 9.31348 17.5 9.44938 17.5444 9.55658C17.6036 9.69951 17.7172 9.81307 17.8601 9.87228C17.9673 9.91668 18.1032 9.91668 18.375 9.91668H18.7074L20.5157 9.91737C20.9451 9.92118 21.1148 9.94074 21.2326 9.98425L21.3144 10.0215C21.3896 10.0618 21.4382 10.1104 21.4785 10.1856C21.5555 10.3296 21.5833 10.4738 21.5833 11.1579V22.6755L21.5767 23.1257C21.5675 23.3601 21.5484 23.4776 21.5158 23.5659L21.4785 23.6477C21.4382 23.723 21.3896 23.7716 21.3144 23.8118C21.1704 23.8888 21.0262 23.9167 20.3421 23.9167H7.65787L7.20768 23.91C6.97328 23.9009 6.85573 23.8817 6.76743 23.8491L6.68564 23.8118C6.61037 23.7716 6.56175 23.723 6.52149 23.6477C6.46706 23.5459 6.43719 23.444 6.42437 23.1512L6.41737 22.8491V10.9843C6.42118 10.5549 6.44074 10.3852 6.48425 10.2674L6.52149 10.1856C6.56175 10.1104 6.61037 10.0618 6.68564 10.0215C6.78743 9.96706 6.88932 9.93719 7.18211 9.92437L7.48427 9.91737L9.29257 9.91668H9.625C9.8968 9.91668 10.0327 9.91668 10.1399 9.87228C10.2828 9.81307 10.3964 9.69951 10.4556 9.55658C10.5 9.44938 10.5 9.31348 10.5 9.04168C10.5 8.76988 10.5 8.63398 10.4556 8.52678C10.3964 8.38385 10.2828 8.27029 10.1399 8.21109C10.0327 8.16668 9.8968 8.16668 9.625 8.16668H8.16667V8.16829L7.42931 8.16858C6.55972 8.18389 6.21134 8.29061 5.86035 8.47832C5.4801 8.68168 5.18168 8.9801 4.97832 9.36035C4.77496 9.74059 4.66667 10.1178 4.66667 11.1579L4.66858 22.904C4.68389 23.7736 4.79061 24.122 4.97832 24.473C5.18168 24.8532 5.4801 25.1517 5.86035 25.355C6.24059 25.5584 6.61776 25.6667 7.65787 25.6667H20.3421C21.3822 25.6667 21.7594 25.5584 22.1397 25.355C22.5199 25.1517 22.8183 24.8532 23.0217 24.473C23.225 24.0927 23.3333 23.7156 23.3333 22.6755V11.1579C23.3333 10.1178 23.225 9.74059 23.0217 9.36035C22.8183 8.9801 22.5199 8.68168 22.1397 8.47832C21.7594 8.27496 21.3822 8.16667 20.3421 8.16667Z" fill="#00010A" fill-opacity="0.93"/>
</g>
</svg>
