<svg width="16" height="71" viewBox="0 0 16 71" fill="none" xmlns="http://www.w3.org/2000/svg">
<path d="M8.5692 3.67528C8.56083 3.72109 8.48128 3.89079 8.45721 3.96878C8.41302 3.85449 8.59934 3.50923 8.5692 3.67528ZM11.6459 13.0619C11.6441 12.9961 11.6423 12.9305 11.6405 12.8649C11.5796 13.0323 11.5282 13.268 11.4652 13.4242C11.4548 13.4497 11.4192 13.366 11.3993 13.4277C11.3794 13.4895 11.4576 13.4983 11.4403 13.5916C11.4206 13.6954 11.2383 14.1526 11.1946 14.319C11.0372 14.9166 10.9183 15.5367 10.7265 16.1489C10.837 15.4955 10.6119 16.1275 10.5916 16.3071C10.5873 16.3477 10.7286 16.3742 10.5342 16.993C10.4109 17.3887 10.3035 16.9653 10.2358 17.6656C10.5053 17.1813 10.3682 17.6874 10.2722 18.1001C10.2543 18.1756 10.0994 18.7213 10.0461 18.9733C10.028 19.0588 10.0707 19.2061 10.0459 19.3199C10.0287 19.3983 9.97446 19.4479 9.94917 19.5647C9.82958 20.1149 9.71271 20.6391 9.57794 21.1766C9.45905 20.8179 9.44141 21.4068 9.42678 21.4308C9.34637 21.5486 9.46222 20.9606 9.37835 21.1845C9.31201 21.5087 9.24614 21.8355 9.18076 22.1648C9.2623 21.9019 9.26396 22.5534 9.17869 22.6492C9.35665 22.6316 8.72188 24.0893 8.73111 24.3421C8.73374 24.3911 8.87918 24.0976 8.69415 24.8195C8.6741 24.8976 8.62924 24.8576 8.62568 24.9C8.62356 24.9255 8.75518 25.1079 8.63406 25.2511C8.58997 25.304 8.55751 24.9045 8.43786 25.7425C8.6669 25.4388 8.30225 26.9262 8.21437 27.1799C8.24658 27.1299 8.27879 27.08 8.31102 27.0301C8.20144 27.2862 8.24868 27.3454 8.23446 27.4052C8.17724 27.6464 8.05948 27.9729 8.02355 28.2034C7.98142 28.4731 8.08395 28.492 7.98852 28.7996C8.02433 28.7289 8.06017 28.6583 8.09603 28.5878C8.05236 28.8025 8.00788 29.0243 7.96584 29.2345C7.91614 28.7142 7.94058 29.3408 7.93704 29.38C7.93111 29.444 7.89102 29.3436 7.87977 29.4505C7.87905 29.4617 7.93419 29.4548 7.91216 29.619C7.86612 29.9623 7.80941 29.8975 7.78588 30.0414C7.78402 30.0547 7.83899 30.0162 7.80852 30.2671C7.71252 31.0664 7.77276 30.2567 7.77146 30.2256C7.76963 30.1846 7.52601 30.4218 7.70944 29.7627C7.64897 29.9838 7.55777 29.9921 7.55131 30.0171C7.54566 30.0391 7.49255 30.4331 7.49206 30.4555C7.48982 30.6536 7.57773 30.4935 7.58222 30.5329C7.58567 30.5647 7.42993 31.027 7.592 31.1681C7.38926 31.3696 7.46209 31.0118 7.49925 30.6272C7.47428 30.5658 7.37262 30.979 7.36922 31.0014C7.28194 31.5436 7.46704 31.2655 7.53524 31.398C7.57063 31.4694 7.44333 31.6688 7.59755 31.4892C7.53385 31.9732 7.50936 31.6697 7.49388 31.6991C7.47098 31.7437 7.47944 31.9184 7.47146 31.9389C7.45965 31.9689 7.4342 31.854 7.40001 31.9744C7.39463 31.9945 7.4367 32.2037 7.51151 31.9542C7.44781 32.2932 7.51462 32.2751 7.37117 32.3716C7.57231 32.6438 7.20451 32.5212 7.17694 32.6122C7.10409 32.8547 7.30158 32.8112 7.30866 32.8256C7.35301 32.924 7.18611 33.6033 7.18825 33.7795C7.06359 33.6919 7.26748 33.2312 7.25758 33.1208C7.22428 32.7509 7.11529 33.6141 6.98517 33.3297C7.01535 33.4455 7.04564 33.5615 7.07601 33.6776C6.93843 33.8606 6.93122 33.5758 6.8942 34.112C6.97536 34.2124 6.93364 33.7348 6.99418 33.8376C7.02916 33.9008 6.99446 34.2073 7.01644 34.2171C7.04304 34.2271 7.05043 33.945 7.08644 33.9949C7.1635 34.1023 6.93275 35.1058 6.99252 34.3256C6.96339 34.5412 6.76603 34.6269 6.79637 34.8227C6.81635 34.9494 7.1619 34.3007 6.97393 35.3201C6.885 35.33 7.00517 34.906 7.0003 34.8942C6.99299 34.8771 6.78848 34.9282 6.77704 34.9405C6.73832 34.9829 6.69893 36.0498 6.57287 36.2626C6.69552 36.1932 6.49047 37.0546 6.51301 37.1558C6.51923 37.1824 6.59991 37.0959 6.60374 37.124C6.62544 37.299 6.44565 37.7445 6.41654 37.9591C6.38383 38.1991 6.44695 38.1759 6.4452 38.1893C6.42918 38.2948 6.39909 38.2053 6.39145 38.2701C6.37972 38.3668 6.29217 39.0441 6.29744 39.0751C6.29894 39.0851 6.37922 38.9846 6.37548 39.1308C6.37491 39.1562 6.29594 39.1305 6.28229 39.5645C6.26618 40.0875 6.42267 39.216 6.48283 39.4409C6.32546 39.7597 6.44574 39.7626 6.42637 39.8518C6.41951 39.8827 6.29266 40.1045 6.27175 40.3594C6.27495 40.1752 6.27839 39.9914 6.28208 39.808C6.24452 39.9845 6.22871 40.3346 6.19296 40.4805C6.17552 40.5516 6.09874 40.4833 6.08434 40.6405C6.0818 40.674 6.27004 40.8272 6.22301 40.407C6.29879 40.3819 6.23082 40.5721 6.2417 40.6651C6.24344 40.6792 6.35846 40.7459 6.27126 40.854C6.25008 40.8802 5.92867 40.5388 6.10306 41.3499C6.1087 41.376 6.16179 41.2925 6.16842 41.3182C6.17287 41.3357 6.1347 41.5345 6.13876 41.5573C6.1432 41.5807 6.20115 41.4886 6.20791 41.5166C6.24276 41.6605 6.03387 41.8193 6.07672 41.5384C6.04343 41.6321 6.0106 41.722 5.97764 41.8139C6.13166 41.7277 6.00354 41.9654 5.99533 42.0962C5.94325 42.9348 6.09087 42.384 6.12555 42.5323C6.18156 42.7711 5.95144 42.5708 5.99348 42.9221C5.99763 42.9549 6.14023 42.5472 6.00681 43.3562C6.01358 43.2354 6.02047 43.1149 6.02746 42.9944C5.88155 43.0507 5.99743 43.4295 5.99696 43.4578C5.98762 43.7802 5.95626 43.5586 5.98661 44.0422C5.98938 44.0854 5.94696 44.1754 5.95638 44.2683C5.9952 44.65 6.04185 43.7734 6.10096 43.7541C6.12897 43.7461 6.04195 44.6839 6.02699 44.7125C5.95743 44.8433 6.03638 44.2888 5.95525 44.3889C5.92526 44.4242 5.87095 45.7587 5.82406 46.0268C5.76818 46.3344 5.56892 46.4612 5.7815 46.4784C5.56633 46.5512 5.7033 46.6391 5.69904 46.6788C5.64575 47.1611 5.64409 47.1567 5.6369 47.5676C5.63532 47.6581 5.56699 47.7302 5.57563 47.7629C5.5809 47.7819 5.65098 47.7515 5.66606 47.844C5.68615 47.9718 5.56977 48.7307 5.5293 48.7859C5.48837 48.8405 5.53218 48.4619 5.46648 48.5263C5.44373 48.8008 5.44374 49.0659 5.42184 49.3436C5.41258 49.459 5.37268 49.3972 5.36908 49.4471C5.36727 49.4682 5.38395 49.8702 5.40095 49.8527C5.43891 49.8164 5.48345 48.5834 5.54078 48.912C5.55174 48.9752 5.43971 49.1902 5.56271 49.1619C5.47319 50.2617 5.39517 51.3385 5.3265 52.4427C5.25941 51.8059 5.37084 51.1 5.39453 50.444C5.3978 50.3539 5.42481 50.0511 5.36179 50.0849C5.31737 50.6407 5.31748 51.338 5.25589 51.8766C5.25387 51.8939 5.20145 51.8282 5.19012 51.8926C5.16883 52.013 5.24234 52.4113 5.21706 52.477C5.21126 52.4881 5.14722 52.2605 5.09857 52.3271C4.97373 52.4981 5.23394 52.554 5.22551 52.7021C5.21846 52.8167 5.06627 53.5891 5.14108 53.7859C5.22011 53.9944 5.20799 53.2141 5.27623 53.2742C5.32926 53.8024 5.23969 54.335 5.23685 54.8365C5.23687 54.8453 5.29329 54.7699 5.29836 54.8819C5.30725 55.0767 5.22869 55.1263 5.21428 55.2209C5.19881 55.3239 5.20308 55.6828 5.17405 55.7298C5.17023 55.7358 5.09463 55.6619 5.09267 55.6509C5.06385 55.4944 5.1648 55.4411 5.16636 55.4265C5.17121 55.3726 5.13404 55.3188 5.13733 55.2697C5.1428 55.1887 5.17911 55.1449 5.18456 55.0382C5.18847 54.9646 5.11898 55.0342 5.12366 54.9632C5.12561 54.9371 5.28725 54.66 5.12964 54.6301C5.07634 54.6245 4.97124 56.9067 5.01305 57.1377C5.03396 56.9413 5.05521 56.7453 5.07679 56.5497C5.0251 56.9469 5.14778 57.4277 4.96041 57.4603C4.93388 58.9458 4.92692 60.4174 4.93976 61.8976C4.92901 62.161 4.80556 62.0189 4.85 62.4519C4.8858 62.3389 4.92172 62.2261 4.95775 62.1134C4.93456 62.3352 4.90654 63.3233 4.93672 63.4832C4.9406 63.5039 5.0501 63.5294 5.06692 63.7763C5.08192 63.9955 5.00161 64.0334 4.9898 64.1514C4.98015 64.2507 5.00525 64.3601 5.00174 64.389C4.9989 64.4114 4.94935 64.4219 4.94251 64.4757C4.92155 64.6456 5.05707 64.5036 4.90188 64.6772C4.89427 64.6365 4.88667 64.5959 4.87909 64.5553C4.86292 64.76 4.80022 65.042 4.75302 64.7423C4.74491 64.6908 4.79474 64.7335 4.79327 64.6949C4.73325 63.1777 4.67874 64.3967 4.77372 64.9211C4.70685 65.0595 4.78165 65.8222 4.76909 65.8485C4.75024 65.8847 4.68747 65.7561 4.64562 65.9301C4.63596 65.9662 4.72431 66.9909 4.61192 66.6257C4.58849 66.5502 4.58645 66.0572 4.5787 65.939C4.43905 66.2243 4.68731 66.8694 4.68571 66.9433C4.6769 67.2419 4.52621 66.3784 4.54189 67.0494C4.55481 67.5659 4.631 67.0765 4.68436 67.2726C4.71405 67.3829 4.63421 67.9657 4.7777 67.9423C4.80427 68.1398 4.72142 68.028 4.71731 68.0528C4.71374 68.077 4.77948 68.4651 4.75688 68.5939C4.75403 68.6095 4.67621 68.5655 4.67104 68.5818C4.66229 68.6133 4.70044 68.99 4.70785 69.0048C4.71285 69.0142 4.7728 68.9201 4.79101 68.9561C4.81192 68.998 4.81969 69.3625 4.83984 69.3814C4.86988 69.4078 4.82259 68.9603 4.90072 69.0305C4.89516 69.2383 4.96616 69.5723 5.03442 69.705C5.01527 69.6726 4.99952 69.4721 5.00097 69.4022C5.11032 69.4279 5.13766 69.8585 5.04284 69.717C5.09477 69.8076 5.11467 69.742 5.1613 69.7918C5.17313 69.8049 5.18445 69.9378 5.20482 69.9621C5.20874 69.9652 5.23985 69.8252 5.26354 69.8512C5.30618 69.8982 5.32546 70.3021 5.31761 70.3359C5.29491 70.4309 5.23616 70.1044 5.18906 70.0801C5.18178 70.0766 5.11279 70.3629 5.10532 70.3678C5.02236 70.3902 5.06097 70.074 4.98782 70.115C4.97721 70.1932 4.96665 70.2715 4.95616 70.3498C4.85804 70.0573 4.86059 69.5047 4.76439 69.3688C4.81879 69.8074 4.84841 70.2697 4.65203 70.2827C4.56929 70.2882 4.50746 70.1008 4.48697 70.1096C4.41363 70.143 4.51405 70.4024 4.51082 70.4124C4.50681 70.4208 4.50261 70.4248 4.49827 70.4251C4.49827 70.4251 4.49827 70.4251 4.49826 70.4251C4.45411 70.4282 4.39584 70.0525 4.37454 70.035C4.3366 70.0056 4.20119 70.1841 4.16867 70.1861C4.16167 70.1807 4.10831 69.9137 4.0578 70.0085C4.00672 70.1044 4.02203 70.3407 4.01669 70.3494C3.98548 70.397 3.92537 69.986 3.9044 69.9751C3.89368 69.9692 3.84607 70.1955 3.82847 70.2032C3.81069 70.2101 3.75938 70.0441 3.69756 69.9815C3.6516 69.9348 3.62885 70.0815 3.62045 70.0565C3.61465 70.0386 3.58904 69.6478 3.58041 69.6292C3.56745 69.6013 3.52262 69.6962 3.50902 69.6837C3.48945 69.666 3.49951 69.5387 3.48177 69.5563C3.46835 69.5693 3.32587 70.0708 3.279 70.0711C3.19861 70.071 3.34733 69.539 3.06478 70.0439C3.06293 70.0474 3.09344 70.1637 3.09174 70.1671C3.03878 70.2439 2.9233 69.872 2.97104 70.3332C2.81101 69.4803 2.8434 70.2344 2.70013 70.1164C2.64494 70.0708 2.60115 69.7385 2.59337 69.7375C2.5299 69.7743 2.58789 69.8772 2.55817 69.9155C2.54148 69.9367 2.45222 69.6426 2.41166 69.7128C2.39066 69.7491 2.42029 70.0658 2.41674 70.0793C2.38265 70.2079 2.32609 70.0569 2.29765 70.0866C2.27854 70.1063 2.29018 70.2982 2.2869 70.3035C2.2798 70.3121 2.17965 70.0573 2.14715 70.005C2.12212 69.9652 2.09784 70.1225 2.08619 70.0943C2.01632 69.9247 2.13969 69.5459 1.9563 69.9153C1.94504 69.9379 1.95929 70.0722 1.95705 70.0763C1.90401 70.1635 1.88208 69.9159 1.83111 69.8748C1.74318 69.8041 1.8133 70.1576 1.73516 69.865C1.69592 70.0911 1.70664 70.2151 1.74006 70.4748C1.64778 69.7561 1.41691 69.5151 1.47678 70.317C1.46247 70.0615 1.34358 70.0981 1.33626 70.0221C1.33177 69.9747 1.42762 69.5969 1.16892 69.7843C1.13657 69.8078 1.19447 70.03 1.12075 69.9641C1.10252 69.4229 1.07599 69.9555 1.06699 69.9568C0.906317 69.9598 0.953053 68.6327 0.923461 68.409C0.887319 68.1483 0.749318 67.9226 0.746076 67.8657C0.735921 67.6785 0.807951 67.8304 0.829099 67.7873C0.849852 67.7449 0.700082 67.2151 0.705627 67.1875C0.727334 67.0821 0.808051 67.184 0.81132 67.173C0.850694 67.0417 0.757586 66.3247 0.766786 66.1229C0.717999 66.1312 0.732264 66.5357 0.642303 66.2868C0.537584 65.9968 0.752905 65.9708 0.762028 65.9627C0.702696 64.6245 0.659096 63.2693 0.63198 61.93C0.516834 61.9485 0.62231 62.8248 0.608225 62.8454C0.520193 62.964 0.490976 61.4821 0.530572 61.2995C0.507852 61.4396 0.485247 61.5763 0.46284 61.715C0.326478 61.4838 0.490228 60.9529 0.428334 60.6107C0.408211 60.4999 0.359554 60.7136 0.356049 60.7093C0.303267 60.585 0.340798 60.3845 0.411233 60.5334C0.342148 60.2298 0.415467 60.2735 0.419049 60.0404C0.419195 60.0284 0.366602 60.1289 0.343144 59.9446C0.332048 59.8582 0.329494 59.3981 0.282799 59.3368C0.263045 59.3114 0.0572083 59.5458 0.235353 59.5738C0.151417 60.0753 0.31732 59.7333 0.314466 59.928C0.313861 59.958 0.213514 59.8896 0.264712 60.3805C0.084439 60.2884 0.214182 59.7218 0.192231 59.6255C0.146358 59.4259 0.0588839 60.2498 0.200547 60.4002C0.0601029 60.3308 0.182194 60.4589 0.178497 60.643C0.174571 60.8446 0.131947 60.7572 0.133047 60.8664C0.135868 61.165 0.232876 61.0398 0.14749 61.2875C0.41923 61.0444 0.190111 61.7055 0.121889 61.8974C0.102165 61.5871 0.0832746 61.2761 0.0652018 60.9616C0.0509748 60.9797 0.0367513 60.9978 0.0225306 61.016C0.0234773 60.9333 0.0244849 60.8506 0.0255527 60.768C0.0395675 60.781 0.0535839 60.7941 0.0676017 60.8072C-0.0275102 60.3824 0.0732658 60.2779 0.0739977 60.2432C0.081749 59.7971 0.0784571 59.2837 0.0785842 58.8356C0.0787163 58.7684 -0.0119364 58.8146 0.0595093 58.3247C0.082396 58.1667 0.152078 58.316 0.142122 58.137C-0.0475857 57.9125 0.104472 57.9174 0.105023 57.8509C0.10598 57.6602 0.0596497 57.5435 0.0592647 57.5258C0.0534866 57.2904 0.0645478 56.9463 0.0606279 56.6887C0.0599658 56.6839 -0.00014782 56.8172 0.0191479 56.6501C0.0259674 56.5911 0.282434 56.0683 0.209441 55.6093C0.190423 55.7281 0.171525 55.8471 0.152748 55.9662C0.177776 55.8276 0.134508 54.8388 0.0628881 55.0786C0.0187409 55.2278 0.172963 55.5911 0.0174758 55.6273C0.0670166 55.3025 0.0439503 53.4756 0.0865142 53.339C0.0922453 53.3196 0.138786 53.4411 0.146041 53.4144C0.151459 53.3936 0.152755 52.979 0.174008 52.9248C0.186545 52.8925 0.211284 53.0763 0.229885 53.062C0.243036 53.0493 0.282167 52.5341 0.220454 52.5026C0.241095 52.6299 0.20696 52.9855 0.160243 52.7968C0.154463 52.7725 0.199376 52.6494 0.192051 52.62C0.124303 52.3464 0.114778 53.1566 0.110696 53.2826C0.0461135 52.7718 0.169292 51.9828 0.142427 51.3856C0.204889 51.1479 0.207715 51.7448 0.262432 51.475C0.37626 50.9162 0.19632 51.3222 0.190377 51.3044C0.143313 51.162 0.447877 50.6999 0.232475 50.6899C0.274378 50.4881 0.29837 50.5551 0.28395 50.2674C0.267197 50.3044 0.250456 50.3413 0.233726 50.3783C0.123773 50.0531 0.473655 49.4005 0.495276 49.4504C0.552183 49.5905 0.434113 49.9328 0.435076 49.9632C0.436522 50.0078 0.648584 50.1398 0.43028 50.6153C0.567371 50.8203 0.566109 49.8527 0.644849 50.2967C0.641479 50.0019 0.809548 48.781 0.756562 48.6003C0.74942 48.5788 0.597497 48.6683 0.6897 48.3698C0.733615 48.2282 0.714813 48.5748 0.751992 48.511C0.860908 48.3133 0.979157 45.5678 1.02056 45.0448C1.02304 45.011 1.06734 45.027 1.06952 44.9938C1.07617 44.8917 1.03829 44.5156 1.07414 44.3358C0.959559 44.7049 1.01273 43.9752 1.03835 43.7883C1.07685 43.5034 1.15506 43.5282 1.18272 43.4064C1.28915 42.9371 1.16796 42.1882 1.37994 41.8406C1.20276 41.842 1.52659 41.2232 1.55913 40.9216C1.58414 40.6872 1.5036 40.3358 1.4003 40.6445C1.45 40.2408 1.46252 39.8136 1.49321 39.4365C1.49825 39.3741 1.54058 39.4653 1.54758 39.3588C1.54784 39.3491 1.49859 39.3302 1.50339 39.2387C1.54309 38.4841 1.61016 38.8613 1.65756 38.7248C1.6842 38.6486 1.69963 38.5919 1.7074 38.5499C1.66721 38.9857 1.63162 39.4929 1.61843 39.6284C1.74255 39.5244 1.70417 38.6576 1.7637 38.412C1.76581 38.4034 1.82394 38.4411 1.82541 38.4322C1.82543 38.432 1.82546 38.4318 1.82548 38.4317C1.84094 38.3369 1.88931 37.7318 1.80119 37.8471C1.77764 37.8777 1.74452 38.1561 1.71337 38.4854C1.70969 38.3961 1.63304 38.4536 1.63188 38.4378C1.61965 38.2425 1.7422 37.783 1.77125 37.6193C1.77778 37.5818 1.73322 37.5791 1.73386 37.5729C1.76202 37.424 1.88087 37.5009 1.7693 37.3313C1.95964 37.0789 1.73106 37.8433 1.84019 37.8008C1.92229 37.7648 2.09445 36.0355 1.97151 36.0272C1.98553 36.023 2.00501 36.0016 2.02998 35.9557C2.0848 35.8575 2.13608 35.3674 2.12444 35.2819C2.12183 35.2672 2.0009 35.2568 2.00212 35.2392C2.00505 35.1947 2.17895 34.6178 2.13853 34.3893C2.10531 34.5054 2.07218 34.6216 2.03914 34.7381C2.13645 34.0217 2.08601 34.1284 2.01687 34.3612C2.0149 34.3731 2.00873 34.3841 2.00667 34.3954C1.95453 34.5763 1.89659 34.8106 1.88664 34.813C1.84785 34.8202 1.99677 33.605 2.07578 33.8543C2.08627 33.8884 1.95842 34.4419 2.07664 34.1755C2.09727 34.1288 2.1252 33.7665 2.1367 33.7491C2.21257 33.631 2.17974 34.4261 2.27614 34.3419C2.22379 34.1402 2.29961 33.9018 2.31028 33.6815C2.3152 33.5812 2.25853 33.5484 2.25914 33.536C2.2696 33.3515 2.318 33.4629 2.32517 33.4018C2.3285 33.3704 2.24712 32.9875 2.42222 33.083C2.4641 31.8606 2.33315 32.7341 2.23857 33.4655C2.20343 33.2302 2.30369 32.7729 2.31847 32.5672C2.32373 32.4929 2.25552 32.5272 2.2617 32.4015C2.27373 32.1403 2.53092 30.9457 2.59859 30.6369C2.58953 30.8335 2.66551 30.7886 2.68485 30.6378C2.70438 30.4861 2.59447 30.5986 2.58956 30.5676C2.58442 30.5337 2.74138 29.8347 2.74937 29.7167C2.69472 30.2516 2.78117 30.1426 2.86216 29.695C2.87069 29.763 2.87925 29.831 2.88785 29.8991C2.90389 29.6309 3.09817 29.0983 3.09356 28.9431C3.0927 28.9186 3.02209 28.9939 3.02161 28.9802C3.02006 28.8436 3.15437 28.4059 3.13889 28.3821C3.12598 28.3616 3.04594 28.5442 3.03499 28.4694C3.03282 28.4529 3.13979 28.2861 3.1539 28.0957C3.15905 28.0259 3.09873 28.0579 3.09867 28.0401C3.09842 27.8917 3.17281 27.9921 3.20482 27.7272C3.22823 27.5334 3.16633 27.3749 3.24287 27.1163C2.97584 27.9646 3.15278 27.2417 3.18492 26.8746C3.19012 26.8159 3.08466 26.8474 3.19487 26.5111C3.23436 27.2774 3.32497 26.318 3.36298 26.1278C3.36553 26.1174 3.42962 26.1255 3.4482 26.0319C3.44963 26.0239 3.40462 26.0273 3.4177 25.9395C3.54567 25.092 3.49251 25.6392 3.56501 25.4872C3.59593 25.4222 3.61392 25.0014 3.63385 24.8916C3.6386 24.8664 3.68081 24.8866 3.69804 24.7887C3.72841 24.6157 3.71133 24.4524 3.72992 24.3385C3.73232 24.3253 3.8025 24.3383 3.82224 24.1198C3.82783 24.0584 3.81638 23.986 3.77922 24.0674C3.65642 24.3371 3.66534 24.9005 3.53683 25.2131C3.41942 25.4974 3.59368 24.5633 3.60317 24.5164C3.60641 24.4987 3.60578 24.6865 3.64871 24.504C3.68521 24.3482 3.62064 24.0382 3.69351 23.8116C3.699 23.7943 3.83883 23.63 3.84311 23.6398C3.84588 23.6483 3.81116 23.9369 3.84916 23.9016C3.85352 23.8973 3.88905 23.7166 3.91591 23.6976C3.94864 23.6742 4.22843 23.6499 4.2428 23.6129C4.27944 23.516 4.20601 23.569 4.22343 23.5046C4.26062 23.3655 4.43803 22.8979 4.34989 22.8637C4.32799 22.9422 4.30611 23.0209 4.28426 23.0998C4.36634 22.6536 4.28847 22.8352 4.28428 22.7686C4.27975 22.6972 4.35617 22.7328 4.39474 22.5854C4.40299 22.5527 4.51681 21.9294 4.48087 21.9341C4.46205 22.2872 4.38969 22.1397 4.38456 22.155C4.36542 22.2137 4.40495 22.3022 4.3869 22.3827C4.25928 22.9501 4.29123 22.3575 4.24056 22.4872C4.22327 22.5319 4.2516 22.6341 4.24508 22.6533C4.22391 22.7156 4.1614 22.7038 4.15758 22.7476C4.14862 22.8497 4.26089 22.7515 4.26384 22.7604C4.3005 22.8606 4.15982 23.1968 4.10874 22.959C4.04721 23.0828 4.16069 23.1222 4.09277 23.2167C3.95814 23.4051 4.04521 23.0994 4.04716 23.0125C4.05379 22.7006 4.11687 22.6205 4.19011 22.1958C4.21662 22.043 4.19805 21.8522 4.20986 21.7816C4.21726 21.7366 4.5029 21.3646 4.1978 21.2863C4.26279 21.1295 4.52231 20.9131 4.55009 20.7427C4.57499 20.5892 4.45561 20.6135 4.45452 20.5984C4.45267 20.5752 4.50172 20.3941 4.50008 20.329C4.49801 20.2527 4.44846 20.2795 4.45711 20.1611C4.47883 19.8667 4.58819 19.8996 4.60194 19.872C4.76152 19.5528 4.5704 19.6653 4.5747 19.5875C4.57732 19.5187 4.86509 18.5462 4.87534 18.3276C4.87762 18.4174 4.87995 18.5073 4.88231 18.5974C4.98683 18.4616 4.91193 18.2749 5.0364 18.3013C4.84372 18.2233 5.05093 17.9437 5.06796 17.8498C5.07457 17.8126 5.03984 17.8074 5.04932 17.7612C5.08607 17.5803 5.20995 17.1864 5.2161 17.0866C5.24287 16.653 4.86121 17.6861 4.83381 17.7718C4.87615 17.6007 5.06194 16.642 4.86006 17.0544C4.82887 17.1182 4.88919 17.2595 4.88352 17.2983C4.84444 17.5613 4.8132 17.3395 4.80072 17.3579C4.78014 17.3892 4.81673 17.5777 4.79677 17.6204C4.79023 17.6348 4.74079 17.5205 4.68025 17.7674C4.63887 17.6274 4.86241 16.9527 4.86852 16.8578C4.87078 16.8237 4.66975 16.9926 4.96418 16.4248C4.94853 16.4283 4.93289 16.4318 4.91724 16.4354C4.99441 16.0985 5.07196 15.7647 5.14984 15.4342C5.17277 15.4781 5.19021 15.6793 5.23563 15.443C5.26176 15.3072 5.16527 15.388 5.1663 15.3753C5.17036 15.262 5.76035 13.1081 5.86774 12.702C5.90432 12.5576 5.95673 12.1462 5.96405 12.1162C6.00824 11.9336 6.2224 11.3158 6.24975 11.1908C6.26669 11.1119 6.18653 11.1686 6.20904 11.1003C6.23005 11.0369 6.26821 11.1197 6.27605 11.1013C6.34158 10.9451 6.62687 9.68874 6.76549 9.4272C6.69725 9.59334 6.55154 10.5102 6.59711 10.506C6.60376 10.5036 6.7102 10.3002 6.70204 10.2498C6.7729 10.1909 6.69633 9.89596 6.76602 9.76961C6.77391 9.75545 6.84034 9.84007 6.92723 9.60438C6.95748 9.52206 6.95462 9.29243 7.09765 9.08527C7.16042 8.73943 7.78888 7.11648 7.74249 6.96189C7.73886 6.95674 7.63144 7.18495 7.64618 7.01218C7.66578 6.78314 7.7694 7.02726 7.86351 6.78474C7.87782 6.74624 8.08275 6.06415 8.07969 6.04089C8.05435 5.80706 7.82323 6.38096 7.8151 6.37056C7.79495 6.3396 7.93872 5.84879 7.95466 5.82308C7.96784 5.80555 7.95189 6.26282 8.0718 5.74714C8.03813 5.79931 8.00443 5.85169 7.97072 5.90428C8.02051 5.65925 8.1126 5.66612 8.13669 5.61125C8.2118 5.44164 8.14699 5.20909 8.39924 4.98909C8.46606 4.93113 8.47169 5.06723 8.4811 5.06035C8.56743 4.99274 8.45393 4.8301 8.61139 4.73987C8.62331 4.73297 8.58662 5.05723 8.76894 4.53139C8.74447 4.56689 8.722 4.59672 8.69855 4.62941C8.698 4.55159 8.88017 3.98593 8.9111 3.91813C9.00357 3.71063 9.01493 3.92375 9.08173 3.70728C8.92702 3.80437 9.14398 3.15776 9.22164 3.22947C9.1371 3.10428 9.43628 2.5619 9.53444 2.31043C9.59748 2.14688 9.66951 1.80841 9.69693 1.75467C9.72916 1.69193 9.79912 1.74132 9.86158 1.63067C9.87938 1.59897 9.95716 1.22887 10.1532 0.968405C10.1912 0.917569 10.3691 0.851738 10.3602 0.96932C10.3451 1.16945 10.1031 1.47691 10.1823 1.50332C10.2676 1.52883 10.4012 1.04343 10.4605 0.927568C10.7393 0.377162 10.6963 0.739009 10.727 0.738898C10.808 0.723846 10.9373 0.400616 10.9484 0.390647C10.9967 0.345953 10.9551 0.593192 10.993 0.613077C11.0428 0.637098 11.2607 0.368839 11.2494 0.445689C11.2334 0.553667 11.0402 0.807702 11.0364 0.828246C10.99 1.08697 11.2406 0.807065 11.3345 0.743423C11.3634 0.72387 11.3493 0.842801 11.3636 0.822685C11.5811 0.517068 11.2264 0.682595 11.3344 0.466219C11.4304 0.275056 11.4034 0.560691 11.4108 0.555189C11.4196 0.546796 11.5209 0.31371 11.5633 0.289532C11.585 0.274304 11.4833 0.951916 11.5615 0.956139C11.6277 0.749722 11.6933 0.547828 11.758 0.350492C11.8526 0.37161 11.6727 0.621931 11.6696 0.655738C11.6639 0.721763 11.7757 0.577077 11.8007 0.595837C11.8169 0.606763 11.8018 0.823689 11.8988 0.662193C11.9321 0.607178 11.9215 0.456948 12.0721 0.275451C11.8468 1.0429 12.1087 0.553994 12.1489 0.545118C12.1889 0.537007 12.1168 0.917848 12.2805 0.487811C12.4597 0.541487 12.3311 0.519107 12.311 0.652331C12.2864 0.81732 12.4862 0.492265 12.2168 1.02519C12.3108 1.02428 12.486 0.584642 12.5015 0.566674C12.5155 0.549483 12.5151 0.661386 12.5428 0.632954C12.8653 0.299259 12.6795 0.543354 12.8268 0.470404C12.8358 0.472883 13.0453 0.0836303 12.9292 0.395456C12.7367 0.922258 12.5288 1.1097 12.7355 1.30036C13.0084 0.933287 13.0381 0.427268 13.0956 0.28672C13.1725 0.0970974 13.1383 0.312933 13.1621 0.295771C13.1701 0.289298 13.2353 0.12683 13.2401 0.126709C13.4714 0.0960311 12.9417 0.830556 12.8707 1.1002C12.9271 1.04227 12.9834 0.985068 13.0395 0.928605C13.0022 1.02138 12.9647 1.11531 12.927 1.2104C13.1672 0.786995 12.9549 1.20181 13.0594 1.37759C13.0829 1.41665 13.1462 1.096 13.1018 1.47356C13.2258 1.23222 13.224 1.32421 13.2732 1.08518C13.3323 1.11177 13.1899 1.65201 13.1428 1.86128C13.4966 1.18303 13.114 1.48611 13.4773 0.941558C13.4482 0.801616 13.3455 1.08778 13.3426 1.0603C13.3344 0.955255 13.4786 0.807182 13.429 0.495377C13.4207 0.444777 13.2704 0.579567 13.3809 0.33228C13.3933 0.304724 13.5274 0.17796 13.5312 0.182536C13.5745 0.225327 13.4883 0.371122 13.5072 0.387247C13.5254 0.401797 13.5873 0.224391 13.5932 0.226657C13.6609 0.249546 13.5563 0.380469 13.5861 0.36786C13.6511 0.339444 14.0572 -0.21166 13.6686 0.573213C13.8842 -0.128468 13.6331 0.453249 13.5496 0.730838C13.5301 0.79683 13.5625 0.829243 13.538 0.925764C13.5065 1.04996 13.4296 1.18201 13.411 1.24753C13.3911 1.31864 13.642 0.972746 13.3858 1.51724C13.598 1.26125 13.6911 0.76281 13.8836 0.495025C14.257 -0.00973934 13.8664 0.968726 13.8491 1.0513C13.842 1.07795 13.9305 1.01572 13.9267 1.03391C13.9208 1.0601 13.677 1.57828 13.6985 1.6533C13.7207 1.72434 13.7776 1.45426 13.8301 1.4574C13.8662 1.45532 13.6527 2.1375 13.8191 1.78839C13.9339 1.54617 13.9906 1.06293 14.1531 1.04971C14.0228 1.38845 13.884 1.75743 13.7525 2.1174C13.8787 1.95015 14.014 1.76265 14.143 1.5938C13.9932 2.00292 13.8023 2.31354 13.7279 2.71846C14.2449 1.88692 13.7441 3.05817 13.7573 3.08867C13.7677 3.09659 14.0409 2.78765 14.0873 2.7419C14.011 3.08075 13.6742 4.04511 14.0487 3.55524C13.974 3.63912 13.9741 3.91676 13.9822 3.91642C14.067 3.91065 14.2184 3.37161 14.2532 3.47812C14.2885 3.61368 14.1351 3.70535 14.0847 3.86385C13.8312 4.67268 14.2816 4.62528 13.9382 5.38688C13.9575 5.37581 13.9768 5.36477 13.9962 5.35375C13.6567 6.23208 13.3348 7.10233 13.0189 7.99114C13.0256 8.36508 12.79 9.34815 12.6411 9.78449C12.6101 9.87421 12.4078 10.3099 12.3863 10.3421C12.3458 10.3995 12.4456 10.0457 12.3577 10.1924C12.3397 10.2198 12.0743 11.0017 12.1603 10.9584C12.192 10.8806 12.2436 10.5893 12.2725 10.5506C12.4716 10.2816 11.6799 12.6235 11.6952 12.7627C11.7317 12.7168 11.7682 12.6711 11.8047 12.6255C11.7517 12.77 11.6988 12.9155 11.6459 13.0619ZM8.52999 4.37876C8.49763 4.25981 8.63045 4.03903 8.66112 3.89406C8.70319 3.69265 8.56576 3.28213 8.76922 3.5108C8.68995 3.79483 8.61018 4.08417 8.52999 4.37876ZM7.09014 8.44393C7.18418 8.26596 7.28238 8.45639 7.17501 8.59355C7.16294 8.60879 6.96311 8.68585 7.09014 8.44393ZM7.7847 6.48804C7.78404 6.49639 7.72762 6.65695 7.72354 6.662C7.619 6.78855 7.78946 6.30459 7.7847 6.48804ZM5.11424 16.1176C5.16072 15.9049 4.99013 16.0245 5.01181 16.1698C5.01321 16.1789 5.11108 16.1315 5.11424 16.1176ZM5.15528 15.9684C5.31473 15.8343 5.15748 15.4463 5.11581 15.713C5.11185 15.7389 5.14759 15.9744 5.15528 15.9684ZM7.35474 7.79379C7.39287 7.82855 7.31129 8.01347 7.27493 8.09274C7.23482 8.07765 7.33461 7.87518 7.35474 7.79379ZM5.91466 12.7552C5.9478 12.7721 6.13572 12.0832 6.10202 12.0251C6.09178 12.137 5.88489 12.7375 5.91466 12.7552ZM5.49794 14.5166C5.50866 14.5005 5.56165 14.2597 5.52843 14.2585C5.45673 14.3637 5.44947 14.5883 5.49794 14.5166ZM4.62884 18.0042C4.63375 18.0191 4.87686 17.8882 4.64493 18.2792C4.61093 18.3367 4.61054 18.1027 4.59814 18.1231C4.57318 18.1659 4.55802 18.2008 4.54994 18.2299C4.5796 18.0289 4.62013 17.8237 4.63701 17.807C4.71657 17.7283 4.62685 17.9975 4.62884 18.0042ZM4.35456 19.8779C4.37837 19.9254 4.30306 20.1795 4.27643 20.2355C4.27163 20.2451 4.19494 20.1817 4.17548 20.2998C4.16003 20.3948 4.27967 20.2743 4.22503 20.4539C4.16995 20.6357 4.16137 20.3747 4.15331 20.3898C4.14257 20.41 4.11924 20.7053 4.06968 20.6852C4.03292 20.67 4.12641 20.3687 4.13512 20.2914C4.14621 20.1923 4.05652 20.2955 4.10617 20.1369C4.13734 20.0373 4.23658 20.1185 4.247 20.0984C4.25551 20.0812 4.27051 19.7136 4.35409 19.8784C4.35424 19.8782 4.3544 19.878 4.35456 19.8779ZM4.54233 18.2844C4.54205 18.2687 4.54414 18.2508 4.54994 18.2299C4.54725 18.2481 4.54482 18.2664 4.54233 18.2844ZM8.39244 4.9308C8.32598 5.01579 8.38124 4.7147 8.46197 4.62321C8.49791 4.63319 8.40294 4.9168 8.39244 4.9308ZM4.59024 18.4888C4.49374 18.7765 4.50563 18.5506 4.54233 18.2844C4.54391 18.372 4.62263 18.3924 4.59024 18.4888ZM6.70204 10.2498C6.69027 10.2596 6.67523 10.2636 6.65394 10.2584C6.68629 10.2331 6.69946 10.2339 6.70204 10.2498ZM6.4673 10.9183C6.46379 11.1717 6.59848 10.6938 6.55181 10.6841C6.53411 10.6804 6.46746 10.908 6.4673 10.9183ZM5.04037 16.3878C5.05201 16.368 5.16489 16.7491 5.13808 16.2297C5.05108 16.4816 5.0973 16.2045 5.07921 16.2043C5.02739 16.2022 4.96725 16.6479 4.92234 16.7398C4.9918 16.837 5.00192 16.4531 5.04023 16.3883C5.04028 16.3882 5.04033 16.388 5.04037 16.3878ZM3.59393 23.1949C3.55397 23.1249 3.60919 22.9403 3.63834 22.8145C3.67817 22.8843 3.62288 23.0684 3.59393 23.1949ZM0.00418878 56.4874C-0.032485 55.6104 0.186353 55.5016 0.0884285 56.3005C0.0863757 56.3161 0.0254028 56.5409 0.00418878 56.4874ZM0.320055 48.9589C0.418823 48.8812 0.418561 49.1565 0.370016 49.3352C0.359066 49.3755 0.255635 49.5218 0.246228 49.348C0.36001 49.3596 0.418039 49.0951 0.320055 48.9589ZM4.6103 18.6687C4.65186 18.7673 4.5458 19.0272 4.50637 19.1571C4.47416 19.0658 4.56261 18.7866 4.6103 18.6687ZM0.1783 53.6046C0.188163 53.5125 0.10809 53.4477 0.100783 53.4634C0.0673087 53.5338 0.128533 53.7085 0.1783 53.6046ZM4.81885 17.8252C4.85819 17.8218 4.81151 18.1754 4.71544 18.1785C4.73943 18.1058 4.79387 17.8281 4.81885 17.8252ZM3.6705 22.9614C3.70036 22.9108 3.67609 23.1994 3.64015 23.2814C3.60233 23.2664 3.65098 22.9944 3.6705 22.9614ZM0.200641 52.118C0.210891 52.0349 0.221209 51.8271 0.189019 51.8028C0.148696 51.7725 0.150868 52.0781 0.200641 52.118ZM0.374022 67.5343C0.359643 67.5456 0.235828 67.2289 0.255997 67.0845C0.294418 66.8103 0.383569 67.5222 0.374022 67.5343ZM0.196911 54.4818C0.112591 54.742 0.195132 54.4529 0.112767 54.4624C0.105333 54.6385 0.0915496 55.0779 0.179063 54.7777C0.196008 54.7192 0.189563 54.5639 0.196911 54.4818ZM0.230464 54.2411C0.204572 54.2124 0.125711 54.0216 0.127414 54.1848C0.128339 54.2603 0.218421 54.3841 0.230464 54.2411ZM0.245806 65.5468C0.308575 65.3099 0.314393 66.3837 0.303946 66.4157C0.297966 66.4324 0.29212 66.4433 0.287032 66.4497C0.311817 66.4881 0.325398 66.691 0.268315 66.7173C0.270222 66.6561 0.257417 66.49 0.263009 66.4705C0.265376 66.462 0.267671 66.4557 0.270096 66.4513C0.215787 66.3816 0.233358 65.5918 0.245806 65.5468ZM0.258654 63.7667C0.373888 64.0322 0.193273 64.0856 0.186639 64.0626C0.102976 63.7719 0.243325 63.9589 0.249333 63.9497C0.259148 63.9289 0.190558 63.7228 0.258679 63.7676C0.258671 63.7673 0.258662 63.767 0.258654 63.7667ZM0.261585 65.182C0.264338 65.1928 0.267382 65.4173 0.264907 65.4267C0.210782 65.613 0.201931 64.9775 0.261585 65.182ZM4.17192 21.2999C4.12079 21.451 4.08765 21.2862 4.13413 21.1856C4.13848 21.1768 4.21721 21.1662 4.17192 21.2999ZM0.215775 54.1119C0.228815 54.0742 0.304885 53.1227 0.202296 53.1771C0.210825 53.2574 0.1281 54.3412 0.215775 54.1119ZM0.574533 46.9885C0.562588 47.1554 0.479357 46.9669 0.52095 46.8802C0.536389 46.8481 0.577486 46.9464 0.574533 46.9885ZM5.01408 17.383C5.00372 17.2023 5.16652 17.2785 5.07259 17.4103C5.0689 17.4155 5.01448 17.3901 5.01408 17.383ZM0.434902 48.3243C0.412334 47.7409 0.705542 47.8959 0.559171 48.6445C0.547063 48.6201 0.534959 48.5957 0.522859 48.5713C0.427755 49.4418 0.497715 48.6293 0.493617 48.4152C0.491977 48.3337 0.437456 48.3987 0.434508 48.3248C0.43464 48.3246 0.434771 48.3245 0.434902 48.3243ZM0.641849 46.1044C0.897052 45.5584 0.679255 46.6234 0.687833 46.9255C0.618931 46.6275 0.659622 46.2385 0.532521 46.7581C0.568334 45.9876 0.631935 46.3133 0.641001 46.2833C0.651546 46.2475 0.630906 46.1276 0.641849 46.1044ZM0.543425 47.5746C0.547601 47.6071 0.488614 47.8469 0.490385 47.9349C0.424459 47.8078 0.514482 47.3583 0.543425 47.5746ZM0.163954 61.9039C0.221902 61.923 0.265136 61.9719 0.247445 62.164C0.217327 62.1054 0.190071 61.9835 0.163954 61.9039ZM8.87914 4.29799C8.9282 4.17021 9.03812 3.92483 8.95362 3.98215C8.9458 3.98843 8.84726 4.28592 8.87914 4.29799ZM0.358131 51.3419C0.366052 51.3137 0.403353 50.5867 0.328625 50.835C0.305744 50.9095 0.285465 51.573 0.358131 51.3419ZM0.23139 55.1135C0.233221 55.0521 0.227866 54.8032 0.214409 54.7976C0.16768 54.7797 0.186838 55.0857 0.23139 55.1135ZM9.16127 3.67813C9.17287 3.66283 9.29906 3.28189 9.2578 3.31423C9.17985 3.37372 9.12173 3.72724 9.16127 3.67813ZM4.18238 21.8951C4.17749 21.9284 4.10711 21.9589 4.10401 21.9701C4.09734 21.9961 3.994 22.6061 3.96389 22.3584C3.95851 22.3157 4.17238 21.4561 4.20452 21.3477C4.29772 21.3224 4.13892 21.6725 4.12848 21.7645C4.12675 21.7807 4.19482 21.8057 4.18209 21.8947C4.18219 21.8949 4.18229 21.895 4.18238 21.8951ZM0.246165 62.9023C0.301001 62.9282 0.356641 63.6554 0.290662 63.6491C0.275269 63.3998 0.260438 63.1509 0.246165 62.9023ZM0.246578 62.5329C0.281727 62.3771 0.302555 62.7397 0.288223 62.8472C0.251487 62.8492 0.241368 62.5555 0.246578 62.5329ZM0.469586 53.7365C0.458334 53.6632 0.372319 53.8853 0.358283 53.8346C0.349536 53.8022 0.384075 53.64 0.36074 53.5873C0.353253 53.5723 0.273548 53.7364 0.27543 53.7847C0.277805 53.8532 0.338565 53.7885 0.336864 53.8632C0.331186 54.1109 0.283478 54.3299 0.278837 54.5631C0.278532 54.5842 0.324057 54.4219 0.319145 54.6015C0.31848 54.6292 0.252527 54.7945 0.257087 55.01C0.438843 55.4928 0.244103 55.8276 0.305053 56.429C0.323283 56.4065 0.37834 55.96 0.3807 55.9338C0.419724 55.4396 0.442746 54.5321 0.45798 54.0085C0.461843 53.8738 0.419451 53.9381 0.419576 53.88C0.419775 53.8342 0.493375 53.8908 0.469586 53.7365ZM8.89442 4.38017C8.98685 4.34328 9.01727 4.11316 9.06885 3.9795C8.98814 4.00423 8.95724 4.25072 8.89442 4.38017ZM0.263406 59.2667C0.260244 59.196 0.282439 58.9771 0.25983 58.9591C0.230206 58.9357 0.212232 59.2519 0.263406 59.2667ZM3.47146 25.3102C3.47217 25.3173 3.436 25.4854 3.43247 25.4914C3.34446 25.631 3.45327 25.1268 3.47146 25.3102ZM2.73789 29.3167C2.7257 29.4455 2.72748 29.578 2.66024 29.611C2.68291 29.531 2.69851 29.2947 2.73789 29.3167ZM1.89747 34.8757C1.98008 34.8598 1.87674 35.2397 1.85998 35.3123C1.82834 35.2803 1.83777 34.8872 1.89747 34.8757ZM0.413936 61.8714C0.413646 62.1082 0.53361 62.0559 0.481917 62.2073C0.473199 62.2321 0.223023 62.3166 0.312168 62.0541C0.32824 62.0069 0.391483 62.1889 0.413936 61.8714ZM0.549576 48.7675C0.598814 48.8311 0.57248 49.0196 0.56124 49.1477C0.523609 49.1167 0.548088 48.8587 0.549576 48.7675ZM9.46782 3.00952C9.57785 2.92472 9.70877 2.41441 9.61739 2.51885C9.60505 2.53288 9.49641 2.93897 9.46782 3.00952ZM4.70846 19.3144C4.7193 19.5304 4.83235 19.1172 4.80916 18.9635C4.79782 19.029 4.70784 19.2995 4.70846 19.3144ZM2.12637 33.5475C2.1273 33.5578 2.09022 33.7779 2.08598 33.7874C1.9995 33.9599 2.10414 33.337 2.12637 33.5475ZM3.05893 28.0176C3.0916 28.1098 2.96341 28.6211 2.89591 28.73C2.84494 28.6067 3.01633 27.9098 3.05893 28.0176ZM0.364427 60.8938C0.369081 61.0641 0.356501 61.2261 0.338049 61.3832C0.296729 61.3508 0.334141 60.9121 0.364427 60.8938ZM2.01687 34.3612C2.0149 34.3731 2.00873 34.3841 2.00667 34.3954C2.01002 34.3837 2.01358 34.3723 2.01687 34.3612ZM0.387105 57.0962C0.404542 56.9542 0.329768 56.983 0.327388 56.9917C0.302167 57.0985 0.367492 57.2571 0.387105 57.0962ZM9.05412 4.25906C9.13434 4.23347 9.16629 3.98625 9.22785 3.86144C9.16437 3.88109 9.08518 4.1491 9.05412 4.25906ZM0.8234 45.5156C0.909394 45.3428 0.939646 46.0744 0.882208 46.2249C0.836178 46.2328 0.811175 45.5406 0.8234 45.5156ZM4.95538 18.6932C5.00994 18.6909 5.01809 18.3771 4.97897 18.435C4.95409 18.4715 4.92153 18.6941 4.95538 18.6932ZM0.825722 46.5893C0.836921 46.6599 0.774335 46.8128 0.746502 46.7554C0.710798 46.6821 0.82236 46.5712 0.825722 46.5893ZM0.549543 52.7004C0.558501 52.6712 0.518858 52.2704 0.459174 52.4335C0.417719 52.5463 0.493225 52.5673 0.492496 52.5941C0.491021 52.6239 0.376171 53.2611 0.549543 52.7004ZM1.2208 41.4714C1.22625 41.623 1.18528 41.8018 1.17172 41.9591C1.14531 41.8919 1.17138 41.5307 1.2208 41.4714ZM4.70675 19.841C4.73531 19.8084 4.96845 18.8467 4.77914 19.38C4.76813 19.4105 4.61928 19.935 4.70675 19.841ZM0.413936 61.8714C0.413982 61.8415 0.415872 61.8071 0.420366 61.767C0.419021 61.8067 0.416078 61.8413 0.413936 61.8714ZM0.393646 59.1708C0.432118 59.2252 0.441752 58.9506 0.421338 58.8697C0.374392 58.8447 0.388192 59.1633 0.393646 59.1708ZM1.22385 41.9761C1.23705 42.0687 1.19817 42.2309 1.19025 42.3435C1.15646 42.3211 1.18399 42.0117 1.22385 41.9761ZM1.98512 35.6207C1.94 35.801 1.92169 36.0187 1.96445 36.0283C1.95721 36.0311 1.94892 36.0388 1.93986 36.0522C1.93083 36.0658 1.9264 36.2593 1.90107 36.3406C1.74732 36.8316 2.10225 34.3985 2.03847 35.8315C2.02051 35.7623 2.00287 35.6909 1.98512 35.6207ZM3.28662 27.3221C3.35705 27.2299 3.34291 26.9348 3.30902 27.0046C3.28558 27.053 3.21573 27.4142 3.28662 27.3221ZM2.6617 31.2301C2.67575 31.2013 2.68242 30.9202 2.65596 30.9088C2.60175 31.0622 2.5967 31.3607 2.6617 31.2301ZM3.489 26.5568C3.50849 26.4952 3.43916 26.3992 3.43412 26.4059C3.39152 26.4643 3.4226 26.6542 3.489 26.5568ZM0.636266 61.3781C0.659205 61.2811 0.592946 60.9745 0.535627 60.9083C0.546402 60.8957 0.560226 60.8619 0.576588 60.8002C0.57659 60.8004 0.576592 60.8006 0.576595 60.8007C0.594874 60.7148 0.607255 58.2445 0.506988 59.9023C0.503877 59.9544 0.55405 59.8829 0.546733 60.0946C0.546194 60.1086 0.504808 60.1159 0.503151 60.1591C0.49938 60.2584 0.47885 60.7891 0.513773 60.8956C0.506105 60.8966 0.498886 60.9036 0.492369 60.9184C0.434141 61.0501 0.618464 61.4533 0.636266 61.3781ZM2.58417 31.7795C2.60789 31.726 2.62071 31.5474 2.58743 31.5236C2.55612 31.6081 2.52888 31.9036 2.58417 31.7795ZM4.85991 19.8439C4.91445 19.7385 4.92383 19.444 4.87529 19.5226C4.8454 19.5705 4.79709 19.9652 4.85991 19.8439ZM2.84566 30.0066C2.69604 30.6563 2.82355 30.1638 2.86011 30.2729C2.85524 30.1841 2.85042 30.0953 2.84566 30.0066ZM0.572891 64.4395C0.581682 64.333 0.691567 64.4544 0.638144 64.5712C0.621166 64.608 0.568156 64.4985 0.572891 64.4395ZM0.833331 69.1895C0.921292 69.0938 0.893945 69.5361 0.818898 69.3691C0.816208 69.3613 0.830147 69.1961 0.833331 69.1895ZM0.698183 65.8653C0.631364 65.7965 0.62176 65.7502 0.629403 65.5484C0.659527 65.8455 0.704596 65.5669 0.698183 65.8653ZM1.97151 36.0272C1.96881 36.028 1.96679 36.0288 1.96445 36.0283C1.96695 36.0273 1.96923 36.027 1.97151 36.0272ZM3.58523 25.9484C3.65306 25.8802 3.69329 25.646 3.62666 25.7052C3.62044 25.7108 3.55179 25.9097 3.58523 25.9484ZM0.535627 60.9083C0.526074 60.9194 0.519734 60.9139 0.513773 60.8956C0.520993 60.8947 0.527879 60.8993 0.535627 60.9083ZM3.40445 27.1736C3.36614 27.1581 3.28814 27.5037 3.29037 27.5187C3.32358 27.7313 3.38084 27.3173 3.40445 27.1736ZM5.44489 17.5845C5.44502 17.5659 5.31642 17.6548 5.33945 17.734C5.35736 17.7953 5.44465 17.6539 5.44489 17.5845ZM0.754451 66.5484C0.759537 66.6603 0.767106 66.8179 0.719068 66.8494C0.723002 66.774 0.718022 66.5478 0.754451 66.5484ZM0.890563 69.0136C0.824336 68.8853 0.806517 68.5842 0.805142 68.3918C0.881256 68.3838 0.864767 68.8908 0.890563 69.0136ZM0.612648 61.6799C0.615548 61.6706 0.633846 61.3917 0.583214 61.4306C0.508838 61.4873 0.586103 61.759 0.612648 61.6799ZM5.26511 18.099C5.27056 18.2292 5.44268 17.9734 5.39177 17.8261C5.36572 17.7502 5.2642 18.0768 5.26511 18.099ZM3.79092 25.2452C3.79316 25.0762 3.66347 25.4713 3.70542 25.5384C3.72401 25.4636 3.79008 25.3052 3.79092 25.2452ZM2.87103 30.7971C3.10638 30.3052 2.78291 30.5412 2.79249 30.6379C2.79379 30.652 2.86539 30.8093 2.87103 30.7971ZM10.2166 1.89392C10.2237 1.81538 10.0496 2.05213 10.0863 2.09993C10.1086 2.13141 10.2102 1.94865 10.2166 1.89392ZM1.7074 38.5499C1.70939 38.5282 1.71136 38.5067 1.71337 38.4854C1.71404 38.5016 1.71244 38.5227 1.7074 38.5499ZM4.28267 23.8176C3.99728 24.1301 4.1699 24.1264 4.16281 24.157C4.14718 24.2235 4.05835 24.3679 4.0429 24.4967C4.04737 24.3467 4.05196 24.197 4.05668 24.0477C4.01801 24.1569 3.74346 25.142 3.77457 25.1714C3.81823 25.211 3.86382 24.8917 3.87002 24.8835C3.8788 24.8715 4.02599 24.849 4.03691 24.8208C4.05434 24.7733 4.22158 23.9417 4.28267 23.8176ZM3.02275 29.7122C2.9926 29.7923 2.93392 29.8068 2.94067 29.8475C2.94299 29.8614 2.99491 29.8721 3.00106 29.9191C3.00826 29.8501 3.01549 29.7811 3.02275 29.7122ZM4.22137 23.1329C4.30576 23.0432 4.18757 23.4988 4.17754 23.5126C4.11846 23.5829 4.1523 23.2059 4.22137 23.1329ZM3.48207 27.0087C3.48876 26.9925 3.57267 26.6457 3.53688 26.6422C3.49283 26.7294 3.39967 27.1978 3.48207 27.0087ZM2.99553 29.9751C2.96898 30.0984 2.87801 30.3259 2.96115 30.3116C2.96118 30.3114 2.96121 30.3112 2.96124 30.311C2.9726 30.1989 2.98402 30.0869 2.99553 29.9751ZM5.33031 18.5567C5.50748 18.358 5.32584 18.4288 5.2386 18.6218C5.27981 18.6961 5.30141 18.5894 5.33031 18.5567ZM5.59417 17.8533C5.63124 17.7951 5.76185 17.1486 5.67293 17.2307C5.64118 17.2594 5.61078 17.6423 5.60221 17.6585C5.5893 17.6828 5.54536 17.5472 5.51226 17.7483C5.53953 17.7426 5.5816 17.873 5.59417 17.8533ZM5.45377 18.3869C5.60102 18.1835 5.43964 18.0921 5.39907 18.2614C5.38309 18.3276 5.43261 18.4159 5.45377 18.3869ZM5.22364 19.3095C5.25787 19.2358 5.3328 19.0204 5.30998 18.857C5.25814 19.0576 5.20681 19.2579 5.15729 19.4519C5.18483 19.4821 5.19312 19.3761 5.22376 19.309C5.22372 19.3092 5.22368 19.3094 5.22364 19.3095ZM1.43714 70.3723C1.47472 70.1851 1.52362 70.6069 1.51265 70.6258C1.47532 70.6819 1.4203 70.456 1.43714 70.3723ZM12.2535 1.14388C12.2918 1.10334 12.366 1.09679 12.3767 0.979115C12.2884 1.06555 12.1997 1.15361 12.1106 1.2433C12.1806 1.36926 12.2116 1.18788 12.2535 1.14388ZM12.7965 0.900106C12.793 0.915818 12.9852 0.901959 12.8011 1.04607C12.6784 1.13826 12.8876 0.437619 13.0156 0.335799C12.9844 0.498642 12.8293 0.762771 12.7965 0.900106ZM13.9939 0.000265837C14.0099 -0.00251502 13.9172 0.258105 13.8951 0.285038C13.78 0.420967 13.9088 0.00910795 13.9939 0.000265837ZM13.6062 0.813188C13.6864 0.709482 13.597 0.976308 13.5461 1.0486C13.5134 1.04343 13.5942 0.82878 13.6062 0.813188ZM3.81078 68.3716C3.91941 68.2218 3.66029 68.1083 3.72372 68.3255C3.72671 68.3359 3.8054 68.378 3.81078 68.3716ZM14.0443 0.31725C13.9612 0.424015 14.0577 0.148935 14.1093 0.0806686C14.1419 0.0859186 14.0569 0.300243 14.0443 0.31725ZM4.08357 68.2548C4.15684 68.0604 3.87821 68.1432 3.86817 68.1676C3.82869 68.2679 3.95929 68.5967 3.99107 68.6635C3.9188 68.1643 4.04919 68.3464 4.08357 68.2548ZM3.86581 67.3904C3.82642 67.2157 3.79237 67.6685 3.87598 67.7499C3.86739 67.6627 3.8771 67.4399 3.86581 67.3904ZM3.90372 66.3105C3.90942 66.2149 3.92119 65.9313 3.87473 65.8859C3.88718 65.9892 3.85606 66.2724 3.90372 66.3105ZM4.0273 66.0894C4.08118 65.9384 3.90354 65.9104 3.96352 66.0793C3.96584 66.0858 4.02418 66.095 4.0273 66.0894ZM4.05602 65.2539C4.12226 65.1542 3.94743 65.05 3.94892 65.2075C3.94969 65.2542 4.0484 65.2645 4.05602 65.2539ZM4.37397 68.0004C4.39625 67.8603 4.26431 67.6886 4.26737 67.9851C4.24289 67.8822 4.21851 67.7794 4.19422 67.6765C4.147 68.0677 4.31499 68.03 4.31426 68.1416C4.31323 68.2977 4.17292 68.2936 4.12724 68.2649C4.22 68.3876 4.25378 68.9303 4.29045 69.2439C4.30853 68.9651 4.34355 68.5138 4.35075 68.241C4.35285 68.163 4.31027 68.09 4.31082 68.0237C4.31194 67.9173 4.37238 68.0083 4.374 68.001C4.37399 68.0008 4.37398 68.0006 4.37397 68.0004ZM4.01926 64.1612C4.08939 63.8713 3.92379 64.0584 3.95969 64.2199C3.96227 64.2268 4.01755 64.1684 4.01926 64.1612ZM14.6688 0.192635C14.455 0.499944 14.4792 0.200238 14.2928 1.00071C14.3336 0.644673 14.2328 0.954093 14.2212 0.876349C14.2124 0.813555 14.3158 0.641523 14.2098 0.721881C14.3369 0.604094 14.5727 0.0215585 14.5934 0.00629056C14.5933 0.00652295 14.5932 0.00675535 14.5931 0.00698775C14.606 -0.00487214 14.7363 0.0973439 14.6688 0.192635ZM4.35149 66.2886C4.55496 66.1839 4.22337 66.1613 4.38738 65.9665C4.12606 65.7281 4.41816 66.6552 4.21324 66.7796C4.18892 65.7566 4.03665 67.4651 4.31827 66.7363C4.23251 67.3296 4.36693 66.9269 4.41168 67.0155C4.45936 67.1104 4.43004 67.4454 4.50654 67.4236C4.50653 67.4234 4.50652 67.4232 4.50651 67.4231C4.49046 67.2217 4.47463 67.0174 4.45929 66.8149C4.30212 67.022 4.33173 66.6041 4.46134 66.4572C4.42469 66.4011 4.38808 66.3449 4.35149 66.2886ZM4.2514 67.4461C4.25411 67.4276 4.20794 66.9847 4.17602 67.0153C4.15735 67.0763 4.21583 67.7003 4.2514 67.4461ZM4.40165 69.3786C4.39174 69.2202 4.40892 68.9737 4.34073 68.8914C4.35003 69.0495 4.3331 69.2964 4.40165 69.3786ZM4.08996 61.233C4.03512 61.0317 4.02951 61.6534 4.08793 61.4727C4.09063 61.464 4.09249 61.2435 4.08996 61.233ZM4.29974 65.8312C4.35454 65.6236 4.15644 65.7289 4.21565 65.8786C4.21914 65.8873 4.29724 65.8408 4.29974 65.8312ZM14.5715 0.473468C14.6131 0.500255 14.3583 1.0021 14.3234 1.08795C14.2992 1.02424 14.5273 0.430438 14.5715 0.473468ZM4.60502 69.645C4.76177 69.3184 4.52971 68.9054 4.53139 68.8583C4.5331 68.8115 4.61537 68.8796 4.6168 68.8689C4.61948 68.8444 4.58325 68.3503 4.57664 68.3269C4.57142 68.31 4.46732 68.4058 4.42693 68.3058C4.49987 68.5008 4.51765 69.4088 4.53346 69.4555C4.54555 69.4913 4.64216 69.209 4.60499 69.6445C4.605 69.6446 4.60501 69.6448 4.60502 69.645ZM4.54804 68.74C4.50974 68.8664 4.48293 68.52 4.495 68.4353C4.52181 68.2468 4.55234 68.7237 4.54804 68.74ZM4.54171 67.905C4.54968 67.8649 4.53966 67.5085 4.48713 67.481C4.42976 67.6529 4.52273 67.9959 4.54171 67.905ZM4.36185 63.9251C4.35233 63.8318 4.38395 63.5741 4.33893 63.5607C4.34809 63.6538 4.31672 63.9118 4.36185 63.9251ZM14.2132 2.34021C14.3025 2.2176 14.1901 2.53932 14.136 2.62828C14.1063 2.62181 14.2057 2.34991 14.2132 2.34021ZM4.72483 65.7782C4.73511 65.7222 4.65759 64.6058 4.63235 64.4506C4.60284 64.6041 4.64348 65.7126 4.66302 65.7628C4.66858 65.7773 4.72299 65.7853 4.72483 65.7782ZM4.86695 68.2C4.93851 68.2986 4.86372 68.3699 4.86349 68.383C4.86083 68.5102 4.89161 68.7723 4.8249 68.7185C4.83655 68.493 4.72485 68.0037 4.86695 68.2ZM4.65677 63.8357C4.62066 63.4542 4.57405 64.1908 4.6399 64.0923C4.64382 64.0859 4.6605 63.8751 4.65677 63.8357ZM4.74936 65.9026C4.80511 65.9836 4.81241 67.1089 4.82285 67.2904C4.71657 67.1335 4.78424 66.9991 4.76861 66.7822C4.76429 66.7237 4.72433 66.7413 4.72396 66.735C4.71716 66.6336 4.76787 66.7073 4.76557 66.6447C4.76346 66.6049 4.66906 65.7875 4.74936 65.9026ZM4.91581 68.2558C4.95666 68.3159 5.01506 69.0129 5.00721 69.0419C4.94571 69.2568 4.90513 68.3103 4.91581 68.2558ZM4.83198 65.7961C4.95069 65.9114 4.89969 66.4715 4.82578 66.093C4.81898 66.0568 4.8615 65.9006 4.83198 65.7961ZM4.76643 63.8732C4.76908 63.8542 4.78002 63.4557 4.74371 63.4496C4.731 63.5073 4.73619 64.0882 4.76643 63.8732ZM4.89547 64.0758C4.8943 64.0662 4.82751 64.1619 4.83039 63.9748C4.83075 63.9592 4.90819 63.9277 4.87238 63.6941C4.86503 63.6467 4.81094 63.5745 4.80787 63.58C4.69141 63.8277 4.9518 64.5571 4.89547 64.0758ZM4.98008 68.2649C5.01099 68.2254 5.11444 68.3102 5.06953 68.3948C5.05013 68.4311 4.9873 68.3692 4.98008 68.2649ZM4.76399 62.6125C4.82887 62.8412 4.82375 62.1184 4.80814 62.0822C4.77127 62.1059 4.75744 62.5894 4.76399 62.6125ZM14.5129 2.83334C14.5129 2.83318 14.513 2.83301 14.5131 2.83285C14.4312 3.00387 14.4279 2.87676 14.4232 2.88436C14.207 3.23648 14.3507 3.17889 14.3399 3.24307C14.3168 3.38241 14.196 3.31509 14.1657 3.55289C14.2265 3.1605 14.132 3.50476 14.0829 3.49708C13.8812 3.46775 14.357 3.04319 14.3863 2.85666C14.3906 2.82986 14.2605 2.98811 14.2684 2.91856C14.2952 2.68904 14.8248 2.18855 14.5129 2.83334ZM5.08192 68.4573C5.14503 68.5433 5.131 69.2275 5.07185 69.0501C5.06194 69.0214 4.98903 68.3304 5.08192 68.4573ZM6.31001 36.6496C6.33927 36.8173 6.44627 36.451 6.41644 36.377C6.40149 36.3401 6.29715 36.5757 6.31001 36.6496ZM6.88409 34.0402C6.90119 33.85 6.7235 33.6109 6.7204 33.8587C6.72025 33.8845 6.85203 34.058 6.88409 34.0402ZM5.41345 46.7402C5.50289 46.5414 5.36271 46.5436 5.35404 46.6937C5.35097 46.7467 5.41063 46.7465 5.41345 46.7402ZM6.11241 39.0101C6.11936 38.9919 6.13794 38.7544 6.10506 38.7594C6.07557 38.8454 6.06419 39.1362 6.11241 39.0101ZM5.42873 46.8065C5.41215 46.6833 5.29656 46.8861 5.38504 47.0394C5.38199 46.9654 5.43044 46.8189 5.42873 46.8065ZM5.12304 65.3637C5.06161 65.2654 5.06785 64.9801 5.05205 64.8172C5.12555 64.7968 5.10469 65.2473 5.12304 65.3637ZM6.6849 34.842C6.65844 34.6525 6.56153 35.0371 6.63514 35.0109C6.63955 35.0064 6.6861 34.8494 6.6849 34.842ZM5.10459 53.2912C5.06453 53.1562 4.99147 53.5783 5.07306 53.464C5.0764 53.4584 5.1068 53.2985 5.10459 53.2912ZM5.0292 55.1493C5.04617 55.0473 5.05173 54.6122 5.00454 54.7805C4.99719 54.8065 4.98869 55.1407 5.0292 55.1493ZM14.3857 3.27309C14.4768 3.2488 14.3443 3.5418 14.3155 3.58021C14.3033 3.59622 14.2673 3.30329 14.3857 3.27309ZM5.52341 45.42C5.52201 45.3144 5.56169 45.0446 5.52565 44.9937C5.52354 45.1221 5.44113 45.4483 5.52341 45.42ZM6.57097 35.676C6.67466 35.5271 6.70375 35.2539 6.58717 35.3065C6.55337 35.6086 6.68862 35.2821 6.57097 35.676ZM5.47195 47.4867C5.48379 47.4034 5.38423 47.3323 5.3787 47.3414C5.32607 47.429 5.42604 47.5672 5.47195 47.4867ZM5.91885 41.1717C5.96356 41.1712 5.97147 40.8987 5.93927 40.9318C5.92844 40.9426 5.8826 41.1719 5.91885 41.1717ZM5.04437 61.8264C5.08264 61.7023 5.1294 62.0781 5.08446 62.1907C5.01721 62.2463 5.03987 61.842 5.04437 61.8264ZM5.30731 49.8226C5.37237 49.8404 5.35798 49.4123 5.29431 49.577C5.27835 49.6182 5.28543 49.8179 5.30731 49.8226ZM5.22206 53.8618C5.15099 53.5759 5.0629 54.765 5.16945 54.4547C5.17679 54.4323 5.22779 53.8864 5.22206 53.8618ZM5.12787 55.8059C5.13742 55.7574 5.3587 55.7854 5.26984 55.9851C5.25831 56.0114 5.20172 55.8868 5.18795 55.9082C5.17996 55.9206 5.14204 56.3582 5.14708 56.3787C5.15265 56.4005 5.2241 56.3759 5.23177 56.398C5.2403 56.4229 5.17426 56.6922 5.17204 56.834C5.16792 57.101 5.227 57.1306 5.22695 57.1525C5.22674 57.2163 5.18374 57.3233 5.18281 57.453C5.1776 58.1101 5.22757 59.1015 5.10545 59.6187C5.15341 59.1584 5.09942 58.7239 5.08421 58.2664C5.2071 58.4015 4.99176 57.5888 5.13226 58.0642C5.09945 57.8434 5.09542 55.9626 5.12786 55.8064C5.12787 55.8062 5.12787 55.806 5.12787 55.8059ZM7.05751 33.2856C7.11462 33.4153 7.18895 32.8038 7.11037 32.7396C7.08604 32.8176 7.05111 33.2694 7.05751 33.2856ZM6.84652 36.1147C6.85208 36.1727 6.9912 36.2486 6.87838 36.5336C6.87835 36.5339 6.87831 36.5342 6.87828 36.5344C6.84541 36.6173 6.82231 36.515 6.80752 36.529C6.80155 36.534 6.69391 36.7922 6.71091 36.5684C6.73699 36.227 6.82406 36.5521 6.8495 36.3692C6.85248 36.3467 6.81895 35.9884 6.79889 36.0064C6.79657 36.0082 6.79952 36.115 6.78999 36.1313C6.75412 36.193 6.71248 36.1552 6.70908 36.1641C6.69903 36.1956 6.7064 36.7491 6.62838 36.8186C6.60231 36.8434 6.66858 35.9399 6.6855 35.9047C6.69567 35.8834 6.82163 35.9098 6.8372 35.8885C6.84494 35.8774 6.84599 35.5092 6.86414 35.4641C6.86937 35.451 6.87443 35.4411 6.87848 35.4338C6.83165 35.483 6.87917 35.1569 6.92223 35.1731C6.93886 35.1811 6.89798 35.4043 6.89386 35.412C6.89209 35.4153 6.88989 35.4182 6.88827 35.4209C6.94227 35.3803 6.83756 36.1435 6.93113 35.9883C6.94079 36.2153 6.83056 35.9429 6.84652 36.1147ZM6.78856 37.1812C6.77803 37.1569 6.7675 37.1325 6.75697 37.1082C6.74116 37.4962 6.62178 37.9334 6.56902 38.3808C6.55556 38.4944 6.65302 38.3735 6.61298 38.5197C6.58092 38.6368 6.48941 38.7602 6.48006 38.6932C6.47767 38.6768 6.55582 38.4395 6.56528 38.3176C6.59316 37.9577 6.51216 38.0398 6.51275 38.0186C6.51353 37.9953 6.5903 37.7764 6.60323 37.6537C6.63562 37.3452 6.60994 37.1991 6.71973 36.7884C6.73517 37.0355 6.85252 36.916 6.78856 37.1812ZM5.42326 51.6093C5.46711 51.6259 5.41704 51.8793 5.41992 51.9724C5.37584 51.956 5.42584 51.7021 5.42326 51.6093ZM11.204 14.2184C11.1531 14.1265 10.9838 14.6808 11.0826 14.5493C11.1044 14.5204 11.1831 14.2928 11.204 14.2184ZM10.4928 16.7413C10.4933 16.8213 10.6213 16.5321 10.5664 16.5188C10.5487 16.5147 10.4927 16.7308 10.4928 16.7413ZM6.15962 42.1698C6.16045 42.1847 6.12365 42.3968 6.11934 42.4031C6.02832 42.5372 6.14105 41.8385 6.15962 42.1698ZM9.8244 19.8682C9.84016 19.5882 9.63207 20.3941 9.74899 20.16C9.75472 20.1482 9.82364 19.8815 9.8244 19.8682ZM9.58339 20.9808C9.59516 20.9166 9.68206 20.6409 9.66117 20.6324C9.62732 20.6186 9.5304 20.935 9.58339 20.9808ZM5.74383 47.5613C5.82803 47.5353 5.74097 47.9121 5.74308 48.0456C5.65876 48.0719 5.74539 47.6941 5.74383 47.5613ZM5.98017 45.1512C5.92074 46.7667 5.77137 46.3971 5.94783 45.0524C6.00067 45.0547 5.98419 45.0496 5.98017 45.1512ZM5.81789 47.2173C5.76917 47.1556 5.7972 46.9752 5.81021 46.85C5.84518 46.8754 5.81434 47.1287 5.81789 47.2173ZM11.4999 13.5718C11.5369 13.6864 11.3376 14.0999 11.3324 14.0154C11.3317 13.995 11.4745 13.5255 11.4999 13.5718ZM6.21683 42.3107C6.30005 42.281 6.22169 42.7593 6.20068 42.7948C6.11538 42.9369 6.23045 42.351 6.21683 42.3107ZM5.67872 49.8577C5.7369 49.9459 5.69225 50.1856 5.68374 50.3411C5.63361 50.2676 5.67063 49.9892 5.67872 49.8577ZM5.79091 48.7282C5.7927 48.7381 5.77431 48.9561 5.77089 48.9658C5.69926 49.1412 5.75101 48.5243 5.79091 48.7282ZM15.1682 2.81583C15.1675 2.82276 15.1055 2.96798 15.1012 2.97249C14.9932 3.08135 15.1796 2.64565 15.1682 2.81583Z" fill="black"/>
</svg>
